<?xml version="1.0" encoding="utf-8" standalone="no"?>
<!DOCTYPE svg PUBLIC "-//W3C//DTD SVG 1.1//EN"
  "http://www.w3.org/Graphics/SVG/1.1/DTD/svg11.dtd">
<svg xmlns:xlink="http://www.w3.org/1999/xlink" width="720pt" height="432pt" viewBox="0 0 720 432" xmlns="http://www.w3.org/2000/svg" version="1.1">
 <metadata>
  <rdf:RDF xmlns:dc="http://purl.org/dc/elements/1.1/" xmlns:cc="http://creativecommons.org/ns#" xmlns:rdf="http://www.w3.org/1999/02/22-rdf-syntax-ns#">
   <cc:Work>
    <dc:type rdf:resource="http://purl.org/dc/dcmitype/StillImage"/>
    <dc:date>2025-06-29T12:07:22.847061</dc:date>
    <dc:format>image/svg+xml</dc:format>
    <dc:creator>
     <cc:Agent>
      <dc:title>Matplotlib v3.10.1, https://matplotlib.org/</dc:title>
     </cc:Agent>
    </dc:creator>
   </cc:Work>
  </rdf:RDF>
 </metadata>
 <defs>
  <style type="text/css">*{stroke-linejoin: round; stroke-linecap: butt}</style>
 </defs>
 <g id="figure_1">
  <g id="patch_1">
   <path d="M 0 432 
L 720 432 
L 720 0 
L 0 0 
z
" style="fill: #ffffff"/>
  </g>
  <g id="axes_1">
   <g id="patch_2">
    <path d="M 69.77 390.04 
L 706.677563 390.04 
L 706.677563 26.88 
L 69.77 26.88 
z
" style="fill: #ffffff"/>
   </g>
   <g id="matplotlib.axis_1">
    <g id="xtick_1">
     <g id="line2d_1">
      <path d="M 86.401049 390.04 
L 86.401049 26.88 
" clip-path="url(#p373f17244c)" style="fill: none; stroke: #b0b0b0; stroke-width: 0.8; stroke-linecap: square"/>
     </g>
     <g id="line2d_2">
      <defs>
       <path id="m75161f2e6a" d="M 0 0 
L 0 3.5 
" style="stroke: #000000; stroke-width: 0.8"/>
      </defs>
      <g>
       <use xlink:href="#m75161f2e6a" x="86.401049" y="390.04" style="stroke: #000000; stroke-width: 0.8"/>
      </g>
     </g>
     <g id="text_1">
      <!-- 0 -->
      <g transform="translate(83.219799 404.638438) scale(0.1 -0.1)">
       <defs>
        <path id="DejaVuSans-30" d="M 2034 4250 
Q 1547 4250 1301 3770 
Q 1056 3291 1056 2328 
Q 1056 1369 1301 889 
Q 1547 409 2034 409 
Q 2525 409 2770 889 
Q 3016 1369 3016 2328 
Q 3016 3291 2770 3770 
Q 2525 4250 2034 4250 
z
M 2034 4750 
Q 2819 4750 3233 4129 
Q 3647 3509 3647 2328 
Q 3647 1150 3233 529 
Q 2819 -91 2034 -91 
Q 1250 -91 836 529 
Q 422 1150 422 2328 
Q 422 3509 836 4129 
Q 1250 4750 2034 4750 
z
" transform="scale(0.015625)"/>
       </defs>
       <use xlink:href="#DejaVuSans-30"/>
      </g>
     </g>
    </g>
    <g id="xtick_2">
     <g id="line2d_3">
      <path d="M 209.594001 390.04 
L 209.594001 26.88 
" clip-path="url(#p373f17244c)" style="fill: none; stroke: #b0b0b0; stroke-width: 0.8; stroke-linecap: square"/>
     </g>
     <g id="line2d_4">
      <g>
       <use xlink:href="#m75161f2e6a" x="209.594001" y="390.04" style="stroke: #000000; stroke-width: 0.8"/>
      </g>
     </g>
     <g id="text_2">
      <!-- 10 -->
      <g transform="translate(203.231501 404.638438) scale(0.1 -0.1)">
       <defs>
        <path id="DejaVuSans-31" d="M 794 531 
L 1825 531 
L 1825 4091 
L 703 3866 
L 703 4441 
L 1819 4666 
L 2450 4666 
L 2450 531 
L 3481 531 
L 3481 0 
L 794 0 
L 794 531 
z
" transform="scale(0.015625)"/>
       </defs>
       <use xlink:href="#DejaVuSans-31"/>
       <use xlink:href="#DejaVuSans-30" transform="translate(63.623047 0)"/>
      </g>
     </g>
    </g>
    <g id="xtick_3">
     <g id="line2d_5">
      <path d="M 332.786953 390.04 
L 332.786953 26.88 
" clip-path="url(#p373f17244c)" style="fill: none; stroke: #b0b0b0; stroke-width: 0.8; stroke-linecap: square"/>
     </g>
     <g id="line2d_6">
      <g>
       <use xlink:href="#m75161f2e6a" x="332.786953" y="390.04" style="stroke: #000000; stroke-width: 0.8"/>
      </g>
     </g>
     <g id="text_3">
      <!-- 20 -->
      <g transform="translate(326.424453 404.638438) scale(0.1 -0.1)">
       <defs>
        <path id="DejaVuSans-32" d="M 1228 531 
L 3431 531 
L 3431 0 
L 469 0 
L 469 531 
Q 828 903 1448 1529 
Q 2069 2156 2228 2338 
Q 2531 2678 2651 2914 
Q 2772 3150 2772 3378 
Q 2772 3750 2511 3984 
Q 2250 4219 1831 4219 
Q 1534 4219 1204 4116 
Q 875 4013 500 3803 
L 500 4441 
Q 881 4594 1212 4672 
Q 1544 4750 1819 4750 
Q 2544 4750 2975 4387 
Q 3406 4025 3406 3419 
Q 3406 3131 3298 2873 
Q 3191 2616 2906 2266 
Q 2828 2175 2409 1742 
Q 1991 1309 1228 531 
z
" transform="scale(0.015625)"/>
       </defs>
       <use xlink:href="#DejaVuSans-32"/>
       <use xlink:href="#DejaVuSans-30" transform="translate(63.623047 0)"/>
      </g>
     </g>
    </g>
    <g id="xtick_4">
     <g id="line2d_7">
      <path d="M 455.979905 390.04 
L 455.979905 26.88 
" clip-path="url(#p373f17244c)" style="fill: none; stroke: #b0b0b0; stroke-width: 0.8; stroke-linecap: square"/>
     </g>
     <g id="line2d_8">
      <g>
       <use xlink:href="#m75161f2e6a" x="455.979905" y="390.04" style="stroke: #000000; stroke-width: 0.8"/>
      </g>
     </g>
     <g id="text_4">
      <!-- 30 -->
      <g transform="translate(449.617405 404.638438) scale(0.1 -0.1)">
       <defs>
        <path id="DejaVuSans-33" d="M 2597 2516 
Q 3050 2419 3304 2112 
Q 3559 1806 3559 1356 
Q 3559 666 3084 287 
Q 2609 -91 1734 -91 
Q 1441 -91 1130 -33 
Q 819 25 488 141 
L 488 750 
Q 750 597 1062 519 
Q 1375 441 1716 441 
Q 2309 441 2620 675 
Q 2931 909 2931 1356 
Q 2931 1769 2642 2001 
Q 2353 2234 1838 2234 
L 1294 2234 
L 1294 2753 
L 1863 2753 
Q 2328 2753 2575 2939 
Q 2822 3125 2822 3475 
Q 2822 3834 2567 4026 
Q 2313 4219 1838 4219 
Q 1578 4219 1281 4162 
Q 984 4106 628 3988 
L 628 4550 
Q 988 4650 1302 4700 
Q 1616 4750 1894 4750 
Q 2613 4750 3031 4423 
Q 3450 4097 3450 3541 
Q 3450 3153 3228 2886 
Q 3006 2619 2597 2516 
z
" transform="scale(0.015625)"/>
       </defs>
       <use xlink:href="#DejaVuSans-33"/>
       <use xlink:href="#DejaVuSans-30" transform="translate(63.623047 0)"/>
      </g>
     </g>
    </g>
    <g id="xtick_5">
     <g id="line2d_9">
      <path d="M 579.172857 390.04 
L 579.172857 26.88 
" clip-path="url(#p373f17244c)" style="fill: none; stroke: #b0b0b0; stroke-width: 0.8; stroke-linecap: square"/>
     </g>
     <g id="line2d_10">
      <g>
       <use xlink:href="#m75161f2e6a" x="579.172857" y="390.04" style="stroke: #000000; stroke-width: 0.8"/>
      </g>
     </g>
     <g id="text_5">
      <!-- 40 -->
      <g transform="translate(572.810357 404.638438) scale(0.1 -0.1)">
       <defs>
        <path id="DejaVuSans-34" d="M 2419 4116 
L 825 1625 
L 2419 1625 
L 2419 4116 
z
M 2253 4666 
L 3047 4666 
L 3047 1625 
L 3713 1625 
L 3713 1100 
L 3047 1100 
L 3047 0 
L 2419 0 
L 2419 1100 
L 313 1100 
L 313 1709 
L 2253 4666 
z
" transform="scale(0.015625)"/>
       </defs>
       <use xlink:href="#DejaVuSans-34"/>
       <use xlink:href="#DejaVuSans-30" transform="translate(63.623047 0)"/>
      </g>
     </g>
    </g>
    <g id="xtick_6">
     <g id="line2d_11">
      <path d="M 702.36581 390.04 
L 702.36581 26.88 
" clip-path="url(#p373f17244c)" style="fill: none; stroke: #b0b0b0; stroke-width: 0.8; stroke-linecap: square"/>
     </g>
     <g id="line2d_12">
      <g>
       <use xlink:href="#m75161f2e6a" x="702.36581" y="390.04" style="stroke: #000000; stroke-width: 0.8"/>
      </g>
     </g>
     <g id="text_6">
      <!-- 50 -->
      <g transform="translate(696.00331 404.638438) scale(0.1 -0.1)">
       <defs>
        <path id="DejaVuSans-35" d="M 691 4666 
L 3169 4666 
L 3169 4134 
L 1269 4134 
L 1269 2991 
Q 1406 3038 1543 3061 
Q 1681 3084 1819 3084 
Q 2600 3084 3056 2656 
Q 3513 2228 3513 1497 
Q 3513 744 3044 326 
Q 2575 -91 1722 -91 
Q 1428 -91 1123 -41 
Q 819 9 494 109 
L 494 744 
Q 775 591 1075 516 
Q 1375 441 1709 441 
Q 2250 441 2565 725 
Q 2881 1009 2881 1497 
Q 2881 1984 2565 2268 
Q 2250 2553 1709 2553 
Q 1456 2553 1204 2497 
Q 953 2441 691 2322 
L 691 4666 
z
" transform="scale(0.015625)"/>
       </defs>
       <use xlink:href="#DejaVuSans-35"/>
       <use xlink:href="#DejaVuSans-30" transform="translate(63.623047 0)"/>
      </g>
     </g>
    </g>
    <g id="text_7">
     <!-- Number of Threads -->
     <g transform="translate(340.055031 418.316562) scale(0.1 -0.1)">
      <defs>
       <path id="DejaVuSans-4e" d="M 628 4666 
L 1478 4666 
L 3547 763 
L 3547 4666 
L 4159 4666 
L 4159 0 
L 3309 0 
L 1241 3903 
L 1241 0 
L 628 0 
L 628 4666 
z
" transform="scale(0.015625)"/>
       <path id="DejaVuSans-75" d="M 544 1381 
L 544 3500 
L 1119 3500 
L 1119 1403 
Q 1119 906 1312 657 
Q 1506 409 1894 409 
Q 2359 409 2629 706 
Q 2900 1003 2900 1516 
L 2900 3500 
L 3475 3500 
L 3475 0 
L 2900 0 
L 2900 538 
Q 2691 219 2414 64 
Q 2138 -91 1772 -91 
Q 1169 -91 856 284 
Q 544 659 544 1381 
z
M 1991 3584 
L 1991 3584 
z
" transform="scale(0.015625)"/>
       <path id="DejaVuSans-6d" d="M 3328 2828 
Q 3544 3216 3844 3400 
Q 4144 3584 4550 3584 
Q 5097 3584 5394 3201 
Q 5691 2819 5691 2113 
L 5691 0 
L 5113 0 
L 5113 2094 
Q 5113 2597 4934 2840 
Q 4756 3084 4391 3084 
Q 3944 3084 3684 2787 
Q 3425 2491 3425 1978 
L 3425 0 
L 2847 0 
L 2847 2094 
Q 2847 2600 2669 2842 
Q 2491 3084 2119 3084 
Q 1678 3084 1418 2786 
Q 1159 2488 1159 1978 
L 1159 0 
L 581 0 
L 581 3500 
L 1159 3500 
L 1159 2956 
Q 1356 3278 1631 3431 
Q 1906 3584 2284 3584 
Q 2666 3584 2933 3390 
Q 3200 3197 3328 2828 
z
" transform="scale(0.015625)"/>
       <path id="DejaVuSans-62" d="M 3116 1747 
Q 3116 2381 2855 2742 
Q 2594 3103 2138 3103 
Q 1681 3103 1420 2742 
Q 1159 2381 1159 1747 
Q 1159 1113 1420 752 
Q 1681 391 2138 391 
Q 2594 391 2855 752 
Q 3116 1113 3116 1747 
z
M 1159 2969 
Q 1341 3281 1617 3432 
Q 1894 3584 2278 3584 
Q 2916 3584 3314 3078 
Q 3713 2572 3713 1747 
Q 3713 922 3314 415 
Q 2916 -91 2278 -91 
Q 1894 -91 1617 61 
Q 1341 213 1159 525 
L 1159 0 
L 581 0 
L 581 4863 
L 1159 4863 
L 1159 2969 
z
" transform="scale(0.015625)"/>
       <path id="DejaVuSans-65" d="M 3597 1894 
L 3597 1613 
L 953 1613 
Q 991 1019 1311 708 
Q 1631 397 2203 397 
Q 2534 397 2845 478 
Q 3156 559 3463 722 
L 3463 178 
Q 3153 47 2828 -22 
Q 2503 -91 2169 -91 
Q 1331 -91 842 396 
Q 353 884 353 1716 
Q 353 2575 817 3079 
Q 1281 3584 2069 3584 
Q 2775 3584 3186 3129 
Q 3597 2675 3597 1894 
z
M 3022 2063 
Q 3016 2534 2758 2815 
Q 2500 3097 2075 3097 
Q 1594 3097 1305 2825 
Q 1016 2553 972 2059 
L 3022 2063 
z
" transform="scale(0.015625)"/>
       <path id="DejaVuSans-72" d="M 2631 2963 
Q 2534 3019 2420 3045 
Q 2306 3072 2169 3072 
Q 1681 3072 1420 2755 
Q 1159 2438 1159 1844 
L 1159 0 
L 581 0 
L 581 3500 
L 1159 3500 
L 1159 2956 
Q 1341 3275 1631 3429 
Q 1922 3584 2338 3584 
Q 2397 3584 2469 3576 
Q 2541 3569 2628 3553 
L 2631 2963 
z
" transform="scale(0.015625)"/>
       <path id="DejaVuSans-20" transform="scale(0.015625)"/>
       <path id="DejaVuSans-6f" d="M 1959 3097 
Q 1497 3097 1228 2736 
Q 959 2375 959 1747 
Q 959 1119 1226 758 
Q 1494 397 1959 397 
Q 2419 397 2687 759 
Q 2956 1122 2956 1747 
Q 2956 2369 2687 2733 
Q 2419 3097 1959 3097 
z
M 1959 3584 
Q 2709 3584 3137 3096 
Q 3566 2609 3566 1747 
Q 3566 888 3137 398 
Q 2709 -91 1959 -91 
Q 1206 -91 779 398 
Q 353 888 353 1747 
Q 353 2609 779 3096 
Q 1206 3584 1959 3584 
z
" transform="scale(0.015625)"/>
       <path id="DejaVuSans-66" d="M 2375 4863 
L 2375 4384 
L 1825 4384 
Q 1516 4384 1395 4259 
Q 1275 4134 1275 3809 
L 1275 3500 
L 2222 3500 
L 2222 3053 
L 1275 3053 
L 1275 0 
L 697 0 
L 697 3053 
L 147 3053 
L 147 3500 
L 697 3500 
L 697 3744 
Q 697 4328 969 4595 
Q 1241 4863 1831 4863 
L 2375 4863 
z
" transform="scale(0.015625)"/>
       <path id="DejaVuSans-54" d="M -19 4666 
L 3928 4666 
L 3928 4134 
L 2272 4134 
L 2272 0 
L 1638 0 
L 1638 4134 
L -19 4134 
L -19 4666 
z
" transform="scale(0.015625)"/>
       <path id="DejaVuSans-68" d="M 3513 2113 
L 3513 0 
L 2938 0 
L 2938 2094 
Q 2938 2591 2744 2837 
Q 2550 3084 2163 3084 
Q 1697 3084 1428 2787 
Q 1159 2491 1159 1978 
L 1159 0 
L 581 0 
L 581 4863 
L 1159 4863 
L 1159 2956 
Q 1366 3272 1645 3428 
Q 1925 3584 2291 3584 
Q 2894 3584 3203 3211 
Q 3513 2838 3513 2113 
z
" transform="scale(0.015625)"/>
       <path id="DejaVuSans-61" d="M 2194 1759 
Q 1497 1759 1228 1600 
Q 959 1441 959 1056 
Q 959 750 1161 570 
Q 1363 391 1709 391 
Q 2188 391 2477 730 
Q 2766 1069 2766 1631 
L 2766 1759 
L 2194 1759 
z
M 3341 1997 
L 3341 0 
L 2766 0 
L 2766 531 
Q 2569 213 2275 61 
Q 1981 -91 1556 -91 
Q 1019 -91 701 211 
Q 384 513 384 1019 
Q 384 1609 779 1909 
Q 1175 2209 1959 2209 
L 2766 2209 
L 2766 2266 
Q 2766 2663 2505 2880 
Q 2244 3097 1772 3097 
Q 1472 3097 1187 3025 
Q 903 2953 641 2809 
L 641 3341 
Q 956 3463 1253 3523 
Q 1550 3584 1831 3584 
Q 2591 3584 2966 3190 
Q 3341 2797 3341 1997 
z
" transform="scale(0.015625)"/>
       <path id="DejaVuSans-64" d="M 2906 2969 
L 2906 4863 
L 3481 4863 
L 3481 0 
L 2906 0 
L 2906 525 
Q 2725 213 2448 61 
Q 2172 -91 1784 -91 
Q 1150 -91 751 415 
Q 353 922 353 1747 
Q 353 2572 751 3078 
Q 1150 3584 1784 3584 
Q 2172 3584 2448 3432 
Q 2725 3281 2906 2969 
z
M 947 1747 
Q 947 1113 1208 752 
Q 1469 391 1925 391 
Q 2381 391 2643 752 
Q 2906 1113 2906 1747 
Q 2906 2381 2643 2742 
Q 2381 3103 1925 3103 
Q 1469 3103 1208 2742 
Q 947 2381 947 1747 
z
" transform="scale(0.015625)"/>
       <path id="DejaVuSans-73" d="M 2834 3397 
L 2834 2853 
Q 2591 2978 2328 3040 
Q 2066 3103 1784 3103 
Q 1356 3103 1142 2972 
Q 928 2841 928 2578 
Q 928 2378 1081 2264 
Q 1234 2150 1697 2047 
L 1894 2003 
Q 2506 1872 2764 1633 
Q 3022 1394 3022 966 
Q 3022 478 2636 193 
Q 2250 -91 1575 -91 
Q 1294 -91 989 -36 
Q 684 19 347 128 
L 347 722 
Q 666 556 975 473 
Q 1284 391 1588 391 
Q 1994 391 2212 530 
Q 2431 669 2431 922 
Q 2431 1156 2273 1281 
Q 2116 1406 1581 1522 
L 1381 1569 
Q 847 1681 609 1914 
Q 372 2147 372 2553 
Q 372 3047 722 3315 
Q 1072 3584 1716 3584 
Q 2034 3584 2315 3537 
Q 2597 3491 2834 3397 
z
" transform="scale(0.015625)"/>
      </defs>
      <use xlink:href="#DejaVuSans-4e"/>
      <use xlink:href="#DejaVuSans-75" transform="translate(74.804688 0)"/>
      <use xlink:href="#DejaVuSans-6d" transform="translate(138.183594 0)"/>
      <use xlink:href="#DejaVuSans-62" transform="translate(235.595703 0)"/>
      <use xlink:href="#DejaVuSans-65" transform="translate(299.072266 0)"/>
      <use xlink:href="#DejaVuSans-72" transform="translate(360.595703 0)"/>
      <use xlink:href="#DejaVuSans-20" transform="translate(401.708984 0)"/>
      <use xlink:href="#DejaVuSans-6f" transform="translate(433.496094 0)"/>
      <use xlink:href="#DejaVuSans-66" transform="translate(494.677734 0)"/>
      <use xlink:href="#DejaVuSans-20" transform="translate(529.882812 0)"/>
      <use xlink:href="#DejaVuSans-54" transform="translate(561.669922 0)"/>
      <use xlink:href="#DejaVuSans-68" transform="translate(622.753906 0)"/>
      <use xlink:href="#DejaVuSans-72" transform="translate(686.132812 0)"/>
      <use xlink:href="#DejaVuSans-65" transform="translate(724.996094 0)"/>
      <use xlink:href="#DejaVuSans-61" transform="translate(786.519531 0)"/>
      <use xlink:href="#DejaVuSans-64" transform="translate(847.798828 0)"/>
      <use xlink:href="#DejaVuSans-73" transform="translate(911.275391 0)"/>
     </g>
    </g>
   </g>
   <g id="matplotlib.axis_2">
    <g id="ytick_1">
     <g id="line2d_13">
      <path d="M 69.77 379.766411 
L 706.677563 379.766411 
" clip-path="url(#p373f17244c)" style="fill: none; stroke: #b0b0b0; stroke-width: 0.8; stroke-linecap: square"/>
     </g>
     <g id="line2d_14">
      <defs>
       <path id="mae08063c27" d="M 0 0 
L -3.5 0 
" style="stroke: #000000; stroke-width: 0.8"/>
      </defs>
      <g>
       <use xlink:href="#mae08063c27" x="69.77" y="379.766411" style="stroke: #000000; stroke-width: 0.8"/>
      </g>
     </g>
     <g id="text_8">
      <!-- 100000 -->
      <g transform="translate(24.595 383.56563) scale(0.1 -0.1)">
       <use xlink:href="#DejaVuSans-31"/>
       <use xlink:href="#DejaVuSans-30" transform="translate(63.623047 0)"/>
       <use xlink:href="#DejaVuSans-30" transform="translate(127.246094 0)"/>
       <use xlink:href="#DejaVuSans-30" transform="translate(190.869141 0)"/>
       <use xlink:href="#DejaVuSans-30" transform="translate(254.492188 0)"/>
       <use xlink:href="#DejaVuSans-30" transform="translate(318.115234 0)"/>
      </g>
     </g>
    </g>
    <g id="ytick_2">
     <g id="line2d_15">
      <path d="M 69.77 324.851636 
L 706.677563 324.851636 
" clip-path="url(#p373f17244c)" style="fill: none; stroke: #b0b0b0; stroke-width: 0.8; stroke-linecap: square"/>
     </g>
     <g id="line2d_16">
      <g>
       <use xlink:href="#mae08063c27" x="69.77" y="324.851636" style="stroke: #000000; stroke-width: 0.8"/>
      </g>
     </g>
     <g id="text_9">
      <!-- 150000 -->
      <g transform="translate(24.595 328.650854) scale(0.1 -0.1)">
       <use xlink:href="#DejaVuSans-31"/>
       <use xlink:href="#DejaVuSans-35" transform="translate(63.623047 0)"/>
       <use xlink:href="#DejaVuSans-30" transform="translate(127.246094 0)"/>
       <use xlink:href="#DejaVuSans-30" transform="translate(190.869141 0)"/>
       <use xlink:href="#DejaVuSans-30" transform="translate(254.492188 0)"/>
       <use xlink:href="#DejaVuSans-30" transform="translate(318.115234 0)"/>
      </g>
     </g>
    </g>
    <g id="ytick_3">
     <g id="line2d_17">
      <path d="M 69.77 269.93686 
L 706.677563 269.93686 
" clip-path="url(#p373f17244c)" style="fill: none; stroke: #b0b0b0; stroke-width: 0.8; stroke-linecap: square"/>
     </g>
     <g id="line2d_18">
      <g>
       <use xlink:href="#mae08063c27" x="69.77" y="269.93686" style="stroke: #000000; stroke-width: 0.8"/>
      </g>
     </g>
     <g id="text_10">
      <!-- 200000 -->
      <g transform="translate(24.595 273.736079) scale(0.1 -0.1)">
       <use xlink:href="#DejaVuSans-32"/>
       <use xlink:href="#DejaVuSans-30" transform="translate(63.623047 0)"/>
       <use xlink:href="#DejaVuSans-30" transform="translate(127.246094 0)"/>
       <use xlink:href="#DejaVuSans-30" transform="translate(190.869141 0)"/>
       <use xlink:href="#DejaVuSans-30" transform="translate(254.492188 0)"/>
       <use xlink:href="#DejaVuSans-30" transform="translate(318.115234 0)"/>
      </g>
     </g>
    </g>
    <g id="ytick_4">
     <g id="line2d_19">
      <path d="M 69.77 215.022085 
L 706.677563 215.022085 
" clip-path="url(#p373f17244c)" style="fill: none; stroke: #b0b0b0; stroke-width: 0.8; stroke-linecap: square"/>
     </g>
     <g id="line2d_20">
      <g>
       <use xlink:href="#mae08063c27" x="69.77" y="215.022085" style="stroke: #000000; stroke-width: 0.8"/>
      </g>
     </g>
     <g id="text_11">
      <!-- 250000 -->
      <g transform="translate(24.595 218.821304) scale(0.1 -0.1)">
       <use xlink:href="#DejaVuSans-32"/>
       <use xlink:href="#DejaVuSans-35" transform="translate(63.623047 0)"/>
       <use xlink:href="#DejaVuSans-30" transform="translate(127.246094 0)"/>
       <use xlink:href="#DejaVuSans-30" transform="translate(190.869141 0)"/>
       <use xlink:href="#DejaVuSans-30" transform="translate(254.492188 0)"/>
       <use xlink:href="#DejaVuSans-30" transform="translate(318.115234 0)"/>
      </g>
     </g>
    </g>
    <g id="ytick_5">
     <g id="line2d_21">
      <path d="M 69.77 160.10731 
L 706.677563 160.10731 
" clip-path="url(#p373f17244c)" style="fill: none; stroke: #b0b0b0; stroke-width: 0.8; stroke-linecap: square"/>
     </g>
     <g id="line2d_22">
      <g>
       <use xlink:href="#mae08063c27" x="69.77" y="160.10731" style="stroke: #000000; stroke-width: 0.8"/>
      </g>
     </g>
     <g id="text_12">
      <!-- 300000 -->
      <g transform="translate(24.595 163.906528) scale(0.1 -0.1)">
       <use xlink:href="#DejaVuSans-33"/>
       <use xlink:href="#DejaVuSans-30" transform="translate(63.623047 0)"/>
       <use xlink:href="#DejaVuSans-30" transform="translate(127.246094 0)"/>
       <use xlink:href="#DejaVuSans-30" transform="translate(190.869141 0)"/>
       <use xlink:href="#DejaVuSans-30" transform="translate(254.492188 0)"/>
       <use xlink:href="#DejaVuSans-30" transform="translate(318.115234 0)"/>
      </g>
     </g>
    </g>
    <g id="ytick_6">
     <g id="line2d_23">
      <path d="M 69.77 105.192534 
L 706.677563 105.192534 
" clip-path="url(#p373f17244c)" style="fill: none; stroke: #b0b0b0; stroke-width: 0.8; stroke-linecap: square"/>
     </g>
     <g id="line2d_24">
      <g>
       <use xlink:href="#mae08063c27" x="69.77" y="105.192534" style="stroke: #000000; stroke-width: 0.8"/>
      </g>
     </g>
     <g id="text_13">
      <!-- 350000 -->
      <g transform="translate(24.595 108.991753) scale(0.1 -0.1)">
       <use xlink:href="#DejaVuSans-33"/>
       <use xlink:href="#DejaVuSans-35" transform="translate(63.623047 0)"/>
       <use xlink:href="#DejaVuSans-30" transform="translate(127.246094 0)"/>
       <use xlink:href="#DejaVuSans-30" transform="translate(190.869141 0)"/>
       <use xlink:href="#DejaVuSans-30" transform="translate(254.492188 0)"/>
       <use xlink:href="#DejaVuSans-30" transform="translate(318.115234 0)"/>
      </g>
     </g>
    </g>
    <g id="ytick_7">
     <g id="line2d_25">
      <path d="M 69.77 50.277759 
L 706.677563 50.277759 
" clip-path="url(#p373f17244c)" style="fill: none; stroke: #b0b0b0; stroke-width: 0.8; stroke-linecap: square"/>
     </g>
     <g id="line2d_26">
      <g>
       <use xlink:href="#mae08063c27" x="69.77" y="50.277759" style="stroke: #000000; stroke-width: 0.8"/>
      </g>
     </g>
     <g id="text_14">
      <!-- 400000 -->
      <g transform="translate(24.595 54.076978) scale(0.1 -0.1)">
       <use xlink:href="#DejaVuSans-34"/>
       <use xlink:href="#DejaVuSans-30" transform="translate(63.623047 0)"/>
       <use xlink:href="#DejaVuSans-30" transform="translate(127.246094 0)"/>
       <use xlink:href="#DejaVuSans-30" transform="translate(190.869141 0)"/>
       <use xlink:href="#DejaVuSans-30" transform="translate(254.492188 0)"/>
       <use xlink:href="#DejaVuSans-30" transform="translate(318.115234 0)"/>
      </g>
     </g>
    </g>
    <g id="text_15">
     <!-- Operations per Second -->
     <g transform="translate(18.515313 265.835) rotate(-90) scale(0.1 -0.1)">
      <defs>
       <path id="DejaVuSans-4f" d="M 2522 4238 
Q 1834 4238 1429 3725 
Q 1025 3213 1025 2328 
Q 1025 1447 1429 934 
Q 1834 422 2522 422 
Q 3209 422 3611 934 
Q 4013 1447 4013 2328 
Q 4013 3213 3611 3725 
Q 3209 4238 2522 4238 
z
M 2522 4750 
Q 3503 4750 4090 4092 
Q 4678 3434 4678 2328 
Q 4678 1225 4090 567 
Q 3503 -91 2522 -91 
Q 1538 -91 948 565 
Q 359 1222 359 2328 
Q 359 3434 948 4092 
Q 1538 4750 2522 4750 
z
" transform="scale(0.015625)"/>
       <path id="DejaVuSans-70" d="M 1159 525 
L 1159 -1331 
L 581 -1331 
L 581 3500 
L 1159 3500 
L 1159 2969 
Q 1341 3281 1617 3432 
Q 1894 3584 2278 3584 
Q 2916 3584 3314 3078 
Q 3713 2572 3713 1747 
Q 3713 922 3314 415 
Q 2916 -91 2278 -91 
Q 1894 -91 1617 61 
Q 1341 213 1159 525 
z
M 3116 1747 
Q 3116 2381 2855 2742 
Q 2594 3103 2138 3103 
Q 1681 3103 1420 2742 
Q 1159 2381 1159 1747 
Q 1159 1113 1420 752 
Q 1681 391 2138 391 
Q 2594 391 2855 752 
Q 3116 1113 3116 1747 
z
" transform="scale(0.015625)"/>
       <path id="DejaVuSans-74" d="M 1172 4494 
L 1172 3500 
L 2356 3500 
L 2356 3053 
L 1172 3053 
L 1172 1153 
Q 1172 725 1289 603 
Q 1406 481 1766 481 
L 2356 481 
L 2356 0 
L 1766 0 
Q 1100 0 847 248 
Q 594 497 594 1153 
L 594 3053 
L 172 3053 
L 172 3500 
L 594 3500 
L 594 4494 
L 1172 4494 
z
" transform="scale(0.015625)"/>
       <path id="DejaVuSans-69" d="M 603 3500 
L 1178 3500 
L 1178 0 
L 603 0 
L 603 3500 
z
M 603 4863 
L 1178 4863 
L 1178 4134 
L 603 4134 
L 603 4863 
z
" transform="scale(0.015625)"/>
       <path id="DejaVuSans-6e" d="M 3513 2113 
L 3513 0 
L 2938 0 
L 2938 2094 
Q 2938 2591 2744 2837 
Q 2550 3084 2163 3084 
Q 1697 3084 1428 2787 
Q 1159 2491 1159 1978 
L 1159 0 
L 581 0 
L 581 3500 
L 1159 3500 
L 1159 2956 
Q 1366 3272 1645 3428 
Q 1925 3584 2291 3584 
Q 2894 3584 3203 3211 
Q 3513 2838 3513 2113 
z
" transform="scale(0.015625)"/>
       <path id="DejaVuSans-53" d="M 3425 4513 
L 3425 3897 
Q 3066 4069 2747 4153 
Q 2428 4238 2131 4238 
Q 1616 4238 1336 4038 
Q 1056 3838 1056 3469 
Q 1056 3159 1242 3001 
Q 1428 2844 1947 2747 
L 2328 2669 
Q 3034 2534 3370 2195 
Q 3706 1856 3706 1288 
Q 3706 609 3251 259 
Q 2797 -91 1919 -91 
Q 1588 -91 1214 -16 
Q 841 59 441 206 
L 441 856 
Q 825 641 1194 531 
Q 1563 422 1919 422 
Q 2459 422 2753 634 
Q 3047 847 3047 1241 
Q 3047 1584 2836 1778 
Q 2625 1972 2144 2069 
L 1759 2144 
Q 1053 2284 737 2584 
Q 422 2884 422 3419 
Q 422 4038 858 4394 
Q 1294 4750 2059 4750 
Q 2388 4750 2728 4690 
Q 3069 4631 3425 4513 
z
" transform="scale(0.015625)"/>
       <path id="DejaVuSans-63" d="M 3122 3366 
L 3122 2828 
Q 2878 2963 2633 3030 
Q 2388 3097 2138 3097 
Q 1578 3097 1268 2742 
Q 959 2388 959 1747 
Q 959 1106 1268 751 
Q 1578 397 2138 397 
Q 2388 397 2633 464 
Q 2878 531 3122 666 
L 3122 134 
Q 2881 22 2623 -34 
Q 2366 -91 2075 -91 
Q 1284 -91 818 406 
Q 353 903 353 1747 
Q 353 2603 823 3093 
Q 1294 3584 2113 3584 
Q 2378 3584 2631 3529 
Q 2884 3475 3122 3366 
z
" transform="scale(0.015625)"/>
      </defs>
      <use xlink:href="#DejaVuSans-4f"/>
      <use xlink:href="#DejaVuSans-70" transform="translate(78.710938 0)"/>
      <use xlink:href="#DejaVuSans-65" transform="translate(142.1875 0)"/>
      <use xlink:href="#DejaVuSans-72" transform="translate(203.710938 0)"/>
      <use xlink:href="#DejaVuSans-61" transform="translate(244.824219 0)"/>
      <use xlink:href="#DejaVuSans-74" transform="translate(306.103516 0)"/>
      <use xlink:href="#DejaVuSans-69" transform="translate(345.3125 0)"/>
      <use xlink:href="#DejaVuSans-6f" transform="translate(373.095703 0)"/>
      <use xlink:href="#DejaVuSans-6e" transform="translate(434.277344 0)"/>
      <use xlink:href="#DejaVuSans-73" transform="translate(497.65625 0)"/>
      <use xlink:href="#DejaVuSans-20" transform="translate(549.755859 0)"/>
      <use xlink:href="#DejaVuSans-70" transform="translate(581.542969 0)"/>
      <use xlink:href="#DejaVuSans-65" transform="translate(645.019531 0)"/>
      <use xlink:href="#DejaVuSans-72" transform="translate(706.542969 0)"/>
      <use xlink:href="#DejaVuSans-20" transform="translate(747.65625 0)"/>
      <use xlink:href="#DejaVuSans-53" transform="translate(779.443359 0)"/>
      <use xlink:href="#DejaVuSans-65" transform="translate(842.919922 0)"/>
      <use xlink:href="#DejaVuSans-63" transform="translate(904.443359 0)"/>
      <use xlink:href="#DejaVuSans-6f" transform="translate(959.423828 0)"/>
      <use xlink:href="#DejaVuSans-6e" transform="translate(1020.605469 0)"/>
      <use xlink:href="#DejaVuSans-64" transform="translate(1083.984375 0)"/>
     </g>
    </g>
   </g>
   <g id="line2d_27">
    <path d="M 98.720344 231.99421 
L 111.039639 149.322959 
L 135.678229 324.927297 
L 184.95541 372.589105 
L 234.232591 351.028663 
L 283.509772 371.487734 
L 382.064134 356.246325 
L 480.618496 365.01192 
L 677.727219 363.073275 
" clip-path="url(#p373f17244c)" style="fill: none; stroke: #1f77b4; stroke-width: 1.5; stroke-linecap: square"/>
    <defs>
     <path id="mad522a445b" d="M 0 3 
C 0.795609 3 1.55874 2.683901 2.12132 2.12132 
C 2.683901 1.55874 3 0.795609 3 0 
C 3 -0.795609 2.683901 -1.55874 2.12132 -2.12132 
C 1.55874 -2.683901 0.795609 -3 0 -3 
C -0.795609 -3 -1.55874 -2.683901 -2.12132 -2.12132 
C -2.683901 -1.55874 -3 -0.795609 -3 0 
C -3 0.795609 -2.683901 1.55874 -2.12132 2.12132 
C -1.55874 2.683901 -0.795609 3 0 3 
z
" style="stroke: #1f77b4"/>
    </defs>
    <g clip-path="url(#p373f17244c)">
     <use xlink:href="#mad522a445b" x="98.720344" y="231.99421" style="fill: #1f77b4; stroke: #1f77b4"/>
     <use xlink:href="#mad522a445b" x="111.039639" y="149.322959" style="fill: #1f77b4; stroke: #1f77b4"/>
     <use xlink:href="#mad522a445b" x="135.678229" y="324.927297" style="fill: #1f77b4; stroke: #1f77b4"/>
     <use xlink:href="#mad522a445b" x="184.95541" y="372.589105" style="fill: #1f77b4; stroke: #1f77b4"/>
     <use xlink:href="#mad522a445b" x="234.232591" y="351.028663" style="fill: #1f77b4; stroke: #1f77b4"/>
     <use xlink:href="#mad522a445b" x="283.509772" y="371.487734" style="fill: #1f77b4; stroke: #1f77b4"/>
     <use xlink:href="#mad522a445b" x="382.064134" y="356.246325" style="fill: #1f77b4; stroke: #1f77b4"/>
     <use xlink:href="#mad522a445b" x="480.618496" y="365.01192" style="fill: #1f77b4; stroke: #1f77b4"/>
     <use xlink:href="#mad522a445b" x="677.727219" y="363.073275" style="fill: #1f77b4; stroke: #1f77b4"/>
    </g>
   </g>
   <g id="line2d_28">
    <path d="M 98.720344 293.238484 
L 111.039639 164.468696 
L 135.678229 230.599067 
L 184.95541 345.95992 
L 234.232591 364.684419 
L 283.509772 366.830719 
L 382.064134 368.148421 
L 480.618496 373.532727 
L 677.727219 371.018004 
" clip-path="url(#p373f17244c)" style="fill: none; stroke: #ff7f0e; stroke-width: 1.5; stroke-linecap: square"/>
    <defs>
     <path id="me388769390" d="M 0 3 
C 0.795609 3 1.55874 2.683901 2.12132 2.12132 
C 2.683901 1.55874 3 0.795609 3 0 
C 3 -0.795609 2.683901 -1.55874 2.12132 -2.12132 
C 1.55874 -2.683901 0.795609 -3 0 -3 
C -0.795609 -3 -1.55874 -2.683901 -2.12132 -2.12132 
C -2.683901 -1.55874 -3 -0.795609 -3 0 
C -3 0.795609 -2.683901 1.55874 -2.12132 2.12132 
C -1.55874 2.683901 -0.795609 3 0 3 
z
" style="stroke: #ff7f0e"/>
    </defs>
    <g clip-path="url(#p373f17244c)">
     <use xlink:href="#me388769390" x="98.720344" y="293.238484" style="fill: #ff7f0e; stroke: #ff7f0e"/>
     <use xlink:href="#me388769390" x="111.039639" y="164.468696" style="fill: #ff7f0e; stroke: #ff7f0e"/>
     <use xlink:href="#me388769390" x="135.678229" y="230.599067" style="fill: #ff7f0e; stroke: #ff7f0e"/>
     <use xlink:href="#me388769390" x="184.95541" y="345.95992" style="fill: #ff7f0e; stroke: #ff7f0e"/>
     <use xlink:href="#me388769390" x="234.232591" y="364.684419" style="fill: #ff7f0e; stroke: #ff7f0e"/>
     <use xlink:href="#me388769390" x="283.509772" y="366.830719" style="fill: #ff7f0e; stroke: #ff7f0e"/>
     <use xlink:href="#me388769390" x="382.064134" y="368.148421" style="fill: #ff7f0e; stroke: #ff7f0e"/>
     <use xlink:href="#me388769390" x="480.618496" y="373.532727" style="fill: #ff7f0e; stroke: #ff7f0e"/>
     <use xlink:href="#me388769390" x="677.727219" y="371.018004" style="fill: #ff7f0e; stroke: #ff7f0e"/>
    </g>
   </g>
   <g id="line2d_29">
    <path d="M 98.720344 270.306008 
L 111.039639 181.785126 
L 135.678229 214.366721 
L 184.95541 351.694011 
L 234.232591 361.744678 
L 283.509772 364.20587 
L 382.064134 360.181298 
L 480.618496 366.475025 
L 677.727219 365.597806 
" clip-path="url(#p373f17244c)" style="fill: none; stroke: #2ca02c; stroke-width: 1.5; stroke-linecap: square"/>
    <defs>
     <path id="m3fe39b376e" d="M 0 3 
C 0.795609 3 1.55874 2.683901 2.12132 2.12132 
C 2.683901 1.55874 3 0.795609 3 0 
C 3 -0.795609 2.683901 -1.55874 2.12132 -2.12132 
C 1.55874 -2.683901 0.795609 -3 0 -3 
C -0.795609 -3 -1.55874 -2.683901 -2.12132 -2.12132 
C -2.683901 -1.55874 -3 -0.795609 -3 0 
C -3 0.795609 -2.683901 1.55874 -2.12132 2.12132 
C -1.55874 2.683901 -0.795609 3 0 3 
z
" style="stroke: #2ca02c"/>
    </defs>
    <g clip-path="url(#p373f17244c)">
     <use xlink:href="#m3fe39b376e" x="98.720344" y="270.306008" style="fill: #2ca02c; stroke: #2ca02c"/>
     <use xlink:href="#m3fe39b376e" x="111.039639" y="181.785126" style="fill: #2ca02c; stroke: #2ca02c"/>
     <use xlink:href="#m3fe39b376e" x="135.678229" y="214.366721" style="fill: #2ca02c; stroke: #2ca02c"/>
     <use xlink:href="#m3fe39b376e" x="184.95541" y="351.694011" style="fill: #2ca02c; stroke: #2ca02c"/>
     <use xlink:href="#m3fe39b376e" x="234.232591" y="361.744678" style="fill: #2ca02c; stroke: #2ca02c"/>
     <use xlink:href="#m3fe39b376e" x="283.509772" y="364.20587" style="fill: #2ca02c; stroke: #2ca02c"/>
     <use xlink:href="#m3fe39b376e" x="382.064134" y="360.181298" style="fill: #2ca02c; stroke: #2ca02c"/>
     <use xlink:href="#m3fe39b376e" x="480.618496" y="366.475025" style="fill: #2ca02c; stroke: #2ca02c"/>
     <use xlink:href="#m3fe39b376e" x="677.727219" y="365.597806" style="fill: #2ca02c; stroke: #2ca02c"/>
    </g>
   </g>
   <g id="line2d_30">
    <path d="M 98.720344 217.411625 
L 111.039639 133.194457 
L 135.678229 200.831108 
L 184.95541 359.114403 
L 234.232591 364.103663 
L 283.509772 360.984767 
L 382.064134 364.598708 
L 480.618496 366.935563 
L 677.727219 369.149309 
" clip-path="url(#p373f17244c)" style="fill: none; stroke: #d62728; stroke-width: 1.5; stroke-linecap: square"/>
    <defs>
     <path id="mfa8d2543f4" d="M 0 3 
C 0.795609 3 1.55874 2.683901 2.12132 2.12132 
C 2.683901 1.55874 3 0.795609 3 0 
C 3 -0.795609 2.683901 -1.55874 2.12132 -2.12132 
C 1.55874 -2.683901 0.795609 -3 0 -3 
C -0.795609 -3 -1.55874 -2.683901 -2.12132 -2.12132 
C -2.683901 -1.55874 -3 -0.795609 -3 0 
C -3 0.795609 -2.683901 1.55874 -2.12132 2.12132 
C -1.55874 2.683901 -0.795609 3 0 3 
z
" style="stroke: #d62728"/>
    </defs>
    <g clip-path="url(#p373f17244c)">
     <use xlink:href="#mfa8d2543f4" x="98.720344" y="217.411625" style="fill: #d62728; stroke: #d62728"/>
     <use xlink:href="#mfa8d2543f4" x="111.039639" y="133.194457" style="fill: #d62728; stroke: #d62728"/>
     <use xlink:href="#mfa8d2543f4" x="135.678229" y="200.831108" style="fill: #d62728; stroke: #d62728"/>
     <use xlink:href="#mfa8d2543f4" x="184.95541" y="359.114403" style="fill: #d62728; stroke: #d62728"/>
     <use xlink:href="#mfa8d2543f4" x="234.232591" y="364.103663" style="fill: #d62728; stroke: #d62728"/>
     <use xlink:href="#mfa8d2543f4" x="283.509772" y="360.984767" style="fill: #d62728; stroke: #d62728"/>
     <use xlink:href="#mfa8d2543f4" x="382.064134" y="364.598708" style="fill: #d62728; stroke: #d62728"/>
     <use xlink:href="#mfa8d2543f4" x="480.618496" y="366.935563" style="fill: #d62728; stroke: #d62728"/>
     <use xlink:href="#mfa8d2543f4" x="677.727219" y="369.149309" style="fill: #d62728; stroke: #d62728"/>
    </g>
   </g>
   <g id="line2d_31">
    <path d="M 98.720344 204.736163 
L 111.039639 158.969563 
L 135.678229 208.558177 
L 184.95541 355.265481 
L 234.232591 358.536348 
L 283.509772 361.220791 
L 382.064134 364.465913 
L 480.618496 370.538971 
L 677.727219 369.712131 
" clip-path="url(#p373f17244c)" style="fill: none; stroke: #9467bd; stroke-width: 1.5; stroke-linecap: square"/>
    <defs>
     <path id="m1ab3926f29" d="M 0 3 
C 0.795609 3 1.55874 2.683901 2.12132 2.12132 
C 2.683901 1.55874 3 0.795609 3 0 
C 3 -0.795609 2.683901 -1.55874 2.12132 -2.12132 
C 1.55874 -2.683901 0.795609 -3 0 -3 
C -0.795609 -3 -1.55874 -2.683901 -2.12132 -2.12132 
C -2.683901 -1.55874 -3 -0.795609 -3 0 
C -3 0.795609 -2.683901 1.55874 -2.12132 2.12132 
C -1.55874 2.683901 -0.795609 3 0 3 
z
" style="stroke: #9467bd"/>
    </defs>
    <g clip-path="url(#p373f17244c)">
     <use xlink:href="#m1ab3926f29" x="98.720344" y="204.736163" style="fill: #9467bd; stroke: #9467bd"/>
     <use xlink:href="#m1ab3926f29" x="111.039639" y="158.969563" style="fill: #9467bd; stroke: #9467bd"/>
     <use xlink:href="#m1ab3926f29" x="135.678229" y="208.558177" style="fill: #9467bd; stroke: #9467bd"/>
     <use xlink:href="#m1ab3926f29" x="184.95541" y="355.265481" style="fill: #9467bd; stroke: #9467bd"/>
     <use xlink:href="#m1ab3926f29" x="234.232591" y="358.536348" style="fill: #9467bd; stroke: #9467bd"/>
     <use xlink:href="#m1ab3926f29" x="283.509772" y="361.220791" style="fill: #9467bd; stroke: #9467bd"/>
     <use xlink:href="#m1ab3926f29" x="382.064134" y="364.465913" style="fill: #9467bd; stroke: #9467bd"/>
     <use xlink:href="#m1ab3926f29" x="480.618496" y="370.538971" style="fill: #9467bd; stroke: #9467bd"/>
     <use xlink:href="#m1ab3926f29" x="677.727219" y="369.712131" style="fill: #9467bd; stroke: #9467bd"/>
    </g>
   </g>
   <g id="line2d_32">
    <path d="M 98.720344 199.234702 
L 111.039639 137.75972 
L 135.678229 182.880346 
L 184.95541 359.275918 
L 234.232591 361.275749 
L 283.509772 358.535425 
L 382.064134 365.818992 
L 480.618496 367.12414 
L 677.727219 368.87412 
" clip-path="url(#p373f17244c)" style="fill: none; stroke: #8c564b; stroke-width: 1.5; stroke-linecap: square"/>
    <defs>
     <path id="m0925c643f3" d="M 0 3 
C 0.795609 3 1.55874 2.683901 2.12132 2.12132 
C 2.683901 1.55874 3 0.795609 3 0 
C 3 -0.795609 2.683901 -1.55874 2.12132 -2.12132 
C 1.55874 -2.683901 0.795609 -3 0 -3 
C -0.795609 -3 -1.55874 -2.683901 -2.12132 -2.12132 
C -2.683901 -1.55874 -3 -0.795609 -3 0 
C -3 0.795609 -2.683901 1.55874 -2.12132 2.12132 
C -1.55874 2.683901 -0.795609 3 0 3 
z
" style="stroke: #8c564b"/>
    </defs>
    <g clip-path="url(#p373f17244c)">
     <use xlink:href="#m0925c643f3" x="98.720344" y="199.234702" style="fill: #8c564b; stroke: #8c564b"/>
     <use xlink:href="#m0925c643f3" x="111.039639" y="137.75972" style="fill: #8c564b; stroke: #8c564b"/>
     <use xlink:href="#m0925c643f3" x="135.678229" y="182.880346" style="fill: #8c564b; stroke: #8c564b"/>
     <use xlink:href="#m0925c643f3" x="184.95541" y="359.275918" style="fill: #8c564b; stroke: #8c564b"/>
     <use xlink:href="#m0925c643f3" x="234.232591" y="361.275749" style="fill: #8c564b; stroke: #8c564b"/>
     <use xlink:href="#m0925c643f3" x="283.509772" y="358.535425" style="fill: #8c564b; stroke: #8c564b"/>
     <use xlink:href="#m0925c643f3" x="382.064134" y="365.818992" style="fill: #8c564b; stroke: #8c564b"/>
     <use xlink:href="#m0925c643f3" x="480.618496" y="367.12414" style="fill: #8c564b; stroke: #8c564b"/>
     <use xlink:href="#m0925c643f3" x="677.727219" y="368.87412" style="fill: #8c564b; stroke: #8c564b"/>
    </g>
   </g>
   <g id="line2d_33">
    <path d="M 98.720344 181.734978 
L 111.039639 43.387273 
L 135.678229 237.852013 
L 184.95541 357.245367 
L 234.232591 355.257101 
L 283.509772 361.567017 
L 382.064134 362.851518 
L 480.618496 366.772872 
L 677.727219 369.930779 
" clip-path="url(#p373f17244c)" style="fill: none; stroke: #e377c2; stroke-width: 1.5; stroke-linecap: square"/>
    <defs>
     <path id="m74dfe670ea" d="M 0 3 
C 0.795609 3 1.55874 2.683901 2.12132 2.12132 
C 2.683901 1.55874 3 0.795609 3 0 
C 3 -0.795609 2.683901 -1.55874 2.12132 -2.12132 
C 1.55874 -2.683901 0.795609 -3 0 -3 
C -0.795609 -3 -1.55874 -2.683901 -2.12132 -2.12132 
C -2.683901 -1.55874 -3 -0.795609 -3 0 
C -3 0.795609 -2.683901 1.55874 -2.12132 2.12132 
C -1.55874 2.683901 -0.795609 3 0 3 
z
" style="stroke: #e377c2"/>
    </defs>
    <g clip-path="url(#p373f17244c)">
     <use xlink:href="#m74dfe670ea" x="98.720344" y="181.734978" style="fill: #e377c2; stroke: #e377c2"/>
     <use xlink:href="#m74dfe670ea" x="111.039639" y="43.387273" style="fill: #e377c2; stroke: #e377c2"/>
     <use xlink:href="#m74dfe670ea" x="135.678229" y="237.852013" style="fill: #e377c2; stroke: #e377c2"/>
     <use xlink:href="#m74dfe670ea" x="184.95541" y="357.245367" style="fill: #e377c2; stroke: #e377c2"/>
     <use xlink:href="#m74dfe670ea" x="234.232591" y="355.257101" style="fill: #e377c2; stroke: #e377c2"/>
     <use xlink:href="#m74dfe670ea" x="283.509772" y="361.567017" style="fill: #e377c2; stroke: #e377c2"/>
     <use xlink:href="#m74dfe670ea" x="382.064134" y="362.851518" style="fill: #e377c2; stroke: #e377c2"/>
     <use xlink:href="#m74dfe670ea" x="480.618496" y="366.772872" style="fill: #e377c2; stroke: #e377c2"/>
     <use xlink:href="#m74dfe670ea" x="677.727219" y="369.930779" style="fill: #e377c2; stroke: #e377c2"/>
    </g>
   </g>
   <g id="patch_3">
    <path d="M 69.77 390.04 
L 69.77 26.88 
" style="fill: none; stroke: #000000; stroke-width: 0.8; stroke-linejoin: miter; stroke-linecap: square"/>
   </g>
   <g id="patch_4">
    <path d="M 706.677563 390.04 
L 706.677563 26.88 
" style="fill: none; stroke: #000000; stroke-width: 0.8; stroke-linejoin: miter; stroke-linecap: square"/>
   </g>
   <g id="patch_5">
    <path d="M 69.77 390.04 
L 706.677563 390.04 
" style="fill: none; stroke: #000000; stroke-width: 0.8; stroke-linejoin: miter; stroke-linecap: square"/>
   </g>
   <g id="patch_6">
    <path d="M 69.77 26.88 
L 706.677563 26.88 
" style="fill: none; stroke: #000000; stroke-width: 0.8; stroke-linejoin: miter; stroke-linecap: square"/>
   </g>
   <g id="text_16">
    <!-- Throughput vs Threads (insert_ratio=0.1) -->
    <g transform="translate(263.685344 20.88) scale(0.12 -0.12)">
     <defs>
      <path id="DejaVuSans-67" d="M 2906 1791 
Q 2906 2416 2648 2759 
Q 2391 3103 1925 3103 
Q 1463 3103 1205 2759 
Q 947 2416 947 1791 
Q 947 1169 1205 825 
Q 1463 481 1925 481 
Q 2391 481 2648 825 
Q 2906 1169 2906 1791 
z
M 3481 434 
Q 3481 -459 3084 -895 
Q 2688 -1331 1869 -1331 
Q 1566 -1331 1297 -1286 
Q 1028 -1241 775 -1147 
L 775 -588 
Q 1028 -725 1275 -790 
Q 1522 -856 1778 -856 
Q 2344 -856 2625 -561 
Q 2906 -266 2906 331 
L 2906 616 
Q 2728 306 2450 153 
Q 2172 0 1784 0 
Q 1141 0 747 490 
Q 353 981 353 1791 
Q 353 2603 747 3093 
Q 1141 3584 1784 3584 
Q 2172 3584 2450 3431 
Q 2728 3278 2906 2969 
L 2906 3500 
L 3481 3500 
L 3481 434 
z
" transform="scale(0.015625)"/>
      <path id="DejaVuSans-76" d="M 191 3500 
L 800 3500 
L 1894 563 
L 2988 3500 
L 3597 3500 
L 2284 0 
L 1503 0 
L 191 3500 
z
" transform="scale(0.015625)"/>
      <path id="DejaVuSans-28" d="M 1984 4856 
Q 1566 4138 1362 3434 
Q 1159 2731 1159 2009 
Q 1159 1288 1364 580 
Q 1569 -128 1984 -844 
L 1484 -844 
Q 1016 -109 783 600 
Q 550 1309 550 2009 
Q 550 2706 781 3412 
Q 1013 4119 1484 4856 
L 1984 4856 
z
" transform="scale(0.015625)"/>
      <path id="DejaVuSans-5f" d="M 3263 -1063 
L 3263 -1509 
L -63 -1509 
L -63 -1063 
L 3263 -1063 
z
" transform="scale(0.015625)"/>
      <path id="DejaVuSans-3d" d="M 678 2906 
L 4684 2906 
L 4684 2381 
L 678 2381 
L 678 2906 
z
M 678 1631 
L 4684 1631 
L 4684 1100 
L 678 1100 
L 678 1631 
z
" transform="scale(0.015625)"/>
      <path id="DejaVuSans-2e" d="M 684 794 
L 1344 794 
L 1344 0 
L 684 0 
L 684 794 
z
" transform="scale(0.015625)"/>
      <path id="DejaVuSans-29" d="M 513 4856 
L 1013 4856 
Q 1481 4119 1714 3412 
Q 1947 2706 1947 2009 
Q 1947 1309 1714 600 
Q 1481 -109 1013 -844 
L 513 -844 
Q 928 -128 1133 580 
Q 1338 1288 1338 2009 
Q 1338 2731 1133 3434 
Q 928 4138 513 4856 
z
" transform="scale(0.015625)"/>
     </defs>
     <use xlink:href="#DejaVuSans-54"/>
     <use xlink:href="#DejaVuSans-68" transform="translate(61.083984 0)"/>
     <use xlink:href="#DejaVuSans-72" transform="translate(124.462891 0)"/>
     <use xlink:href="#DejaVuSans-6f" transform="translate(163.326172 0)"/>
     <use xlink:href="#DejaVuSans-75" transform="translate(224.507812 0)"/>
     <use xlink:href="#DejaVuSans-67" transform="translate(287.886719 0)"/>
     <use xlink:href="#DejaVuSans-68" transform="translate(351.363281 0)"/>
     <use xlink:href="#DejaVuSans-70" transform="translate(414.742188 0)"/>
     <use xlink:href="#DejaVuSans-75" transform="translate(478.21875 0)"/>
     <use xlink:href="#DejaVuSans-74" transform="translate(541.597656 0)"/>
     <use xlink:href="#DejaVuSans-20" transform="translate(580.806641 0)"/>
     <use xlink:href="#DejaVuSans-76" transform="translate(612.59375 0)"/>
     <use xlink:href="#DejaVuSans-73" transform="translate(671.773438 0)"/>
     <use xlink:href="#DejaVuSans-20" transform="translate(723.873047 0)"/>
     <use xlink:href="#DejaVuSans-54" transform="translate(755.660156 0)"/>
     <use xlink:href="#DejaVuSans-68" transform="translate(816.744141 0)"/>
     <use xlink:href="#DejaVuSans-72" transform="translate(880.123047 0)"/>
     <use xlink:href="#DejaVuSans-65" transform="translate(918.986328 0)"/>
     <use xlink:href="#DejaVuSans-61" transform="translate(980.509766 0)"/>
     <use xlink:href="#DejaVuSans-64" transform="translate(1041.789062 0)"/>
     <use xlink:href="#DejaVuSans-73" transform="translate(1105.265625 0)"/>
     <use xlink:href="#DejaVuSans-20" transform="translate(1157.365234 0)"/>
     <use xlink:href="#DejaVuSans-28" transform="translate(1189.152344 0)"/>
     <use xlink:href="#DejaVuSans-69" transform="translate(1228.166016 0)"/>
     <use xlink:href="#DejaVuSans-6e" transform="translate(1255.949219 0)"/>
     <use xlink:href="#DejaVuSans-73" transform="translate(1319.328125 0)"/>
     <use xlink:href="#DejaVuSans-65" transform="translate(1371.427734 0)"/>
     <use xlink:href="#DejaVuSans-72" transform="translate(1432.951172 0)"/>
     <use xlink:href="#DejaVuSans-74" transform="translate(1474.064453 0)"/>
     <use xlink:href="#DejaVuSans-5f" transform="translate(1513.273438 0)"/>
     <use xlink:href="#DejaVuSans-72" transform="translate(1563.273438 0)"/>
     <use xlink:href="#DejaVuSans-61" transform="translate(1604.386719 0)"/>
     <use xlink:href="#DejaVuSans-74" transform="translate(1665.666016 0)"/>
     <use xlink:href="#DejaVuSans-69" transform="translate(1704.875 0)"/>
     <use xlink:href="#DejaVuSans-6f" transform="translate(1732.658203 0)"/>
     <use xlink:href="#DejaVuSans-3d" transform="translate(1793.839844 0)"/>
     <use xlink:href="#DejaVuSans-30" transform="translate(1877.628906 0)"/>
     <use xlink:href="#DejaVuSans-2e" transform="translate(1941.251953 0)"/>
     <use xlink:href="#DejaVuSans-31" transform="translate(1973.039062 0)"/>
     <use xlink:href="#DejaVuSans-29" transform="translate(2036.662109 0)"/>
    </g>
   </g>
   <g id="legend_1">
    <g id="patch_7">
     <path d="M 548.971313 154.251875 
L 699.677563 154.251875 
Q 701.677563 154.251875 701.677563 152.251875 
L 701.677563 33.88 
Q 701.677563 31.88 699.677563 31.88 
L 548.971313 31.88 
Q 546.971313 31.88 546.971313 33.88 
L 546.971313 152.251875 
Q 546.971313 154.251875 548.971313 154.251875 
z
" style="fill: #ffffff; opacity: 0.8; stroke: #cccccc; stroke-linejoin: miter"/>
    </g>
    <g id="text_17">
     <!-- Stream Size -->
     <g transform="translate(594.383032 43.478437) scale(0.1 -0.1)">
      <defs>
       <path id="DejaVuSans-7a" d="M 353 3500 
L 3084 3500 
L 3084 2975 
L 922 459 
L 3084 459 
L 3084 0 
L 275 0 
L 275 525 
L 2438 3041 
L 353 3041 
L 353 3500 
z
" transform="scale(0.015625)"/>
      </defs>
      <use xlink:href="#DejaVuSans-53"/>
      <use xlink:href="#DejaVuSans-74" transform="translate(63.476562 0)"/>
      <use xlink:href="#DejaVuSans-72" transform="translate(102.685547 0)"/>
      <use xlink:href="#DejaVuSans-65" transform="translate(141.548828 0)"/>
      <use xlink:href="#DejaVuSans-61" transform="translate(203.072266 0)"/>
      <use xlink:href="#DejaVuSans-6d" transform="translate(264.351562 0)"/>
      <use xlink:href="#DejaVuSans-20" transform="translate(361.763672 0)"/>
      <use xlink:href="#DejaVuSans-53" transform="translate(393.550781 0)"/>
      <use xlink:href="#DejaVuSans-69" transform="translate(457.027344 0)"/>
      <use xlink:href="#DejaVuSans-7a" transform="translate(484.810547 0)"/>
      <use xlink:href="#DejaVuSans-65" transform="translate(537.300781 0)"/>
     </g>
    </g>
    <g id="line2d_34">
     <path d="M 550.971313 54.656563 
L 560.971313 54.656563 
L 570.971313 54.656563 
" style="fill: none; stroke: #1f77b4; stroke-width: 1.5; stroke-linecap: square"/>
     <g>
      <use xlink:href="#mad522a445b" x="560.971313" y="54.656563" style="fill: #1f77b4; stroke: #1f77b4"/>
     </g>
    </g>
    <g id="text_18">
     <!-- stream_size=100000 -->
     <g transform="translate(578.971313 58.156563) scale(0.1 -0.1)">
      <use xlink:href="#DejaVuSans-73"/>
      <use xlink:href="#DejaVuSans-74" transform="translate(52.099609 0)"/>
      <use xlink:href="#DejaVuSans-72" transform="translate(91.308594 0)"/>
      <use xlink:href="#DejaVuSans-65" transform="translate(130.171875 0)"/>
      <use xlink:href="#DejaVuSans-61" transform="translate(191.695312 0)"/>
      <use xlink:href="#DejaVuSans-6d" transform="translate(252.974609 0)"/>
      <use xlink:href="#DejaVuSans-5f" transform="translate(350.386719 0)"/>
      <use xlink:href="#DejaVuSans-73" transform="translate(400.386719 0)"/>
      <use xlink:href="#DejaVuSans-69" transform="translate(452.486328 0)"/>
      <use xlink:href="#DejaVuSans-7a" transform="translate(480.269531 0)"/>
      <use xlink:href="#DejaVuSans-65" transform="translate(532.759766 0)"/>
      <use xlink:href="#DejaVuSans-3d" transform="translate(594.283203 0)"/>
      <use xlink:href="#DejaVuSans-31" transform="translate(678.072266 0)"/>
      <use xlink:href="#DejaVuSans-30" transform="translate(741.695312 0)"/>
      <use xlink:href="#DejaVuSans-30" transform="translate(805.318359 0)"/>
      <use xlink:href="#DejaVuSans-30" transform="translate(868.941406 0)"/>
      <use xlink:href="#DejaVuSans-30" transform="translate(932.564453 0)"/>
      <use xlink:href="#DejaVuSans-30" transform="translate(996.1875 0)"/>
     </g>
    </g>
    <g id="line2d_35">
     <path d="M 550.971313 69.612813 
L 560.971313 69.612813 
L 570.971313 69.612813 
" style="fill: none; stroke: #ff7f0e; stroke-width: 1.5; stroke-linecap: square"/>
     <g>
      <use xlink:href="#me388769390" x="560.971313" y="69.612813" style="fill: #ff7f0e; stroke: #ff7f0e"/>
     </g>
    </g>
    <g id="text_19">
     <!-- stream_size=500000 -->
     <g transform="translate(578.971313 73.112813) scale(0.1 -0.1)">
      <use xlink:href="#DejaVuSans-73"/>
      <use xlink:href="#DejaVuSans-74" transform="translate(52.099609 0)"/>
      <use xlink:href="#DejaVuSans-72" transform="translate(91.308594 0)"/>
      <use xlink:href="#DejaVuSans-65" transform="translate(130.171875 0)"/>
      <use xlink:href="#DejaVuSans-61" transform="translate(191.695312 0)"/>
      <use xlink:href="#DejaVuSans-6d" transform="translate(252.974609 0)"/>
      <use xlink:href="#DejaVuSans-5f" transform="translate(350.386719 0)"/>
      <use xlink:href="#DejaVuSans-73" transform="translate(400.386719 0)"/>
      <use xlink:href="#DejaVuSans-69" transform="translate(452.486328 0)"/>
      <use xlink:href="#DejaVuSans-7a" transform="translate(480.269531 0)"/>
      <use xlink:href="#DejaVuSans-65" transform="translate(532.759766 0)"/>
      <use xlink:href="#DejaVuSans-3d" transform="translate(594.283203 0)"/>
      <use xlink:href="#DejaVuSans-35" transform="translate(678.072266 0)"/>
      <use xlink:href="#DejaVuSans-30" transform="translate(741.695312 0)"/>
      <use xlink:href="#DejaVuSans-30" transform="translate(805.318359 0)"/>
      <use xlink:href="#DejaVuSans-30" transform="translate(868.941406 0)"/>
      <use xlink:href="#DejaVuSans-30" transform="translate(932.564453 0)"/>
      <use xlink:href="#DejaVuSans-30" transform="translate(996.1875 0)"/>
     </g>
    </g>
    <g id="line2d_36">
     <path d="M 550.971313 84.569063 
L 560.971313 84.569063 
L 570.971313 84.569063 
" style="fill: none; stroke: #2ca02c; stroke-width: 1.5; stroke-linecap: square"/>
     <g>
      <use xlink:href="#m3fe39b376e" x="560.971313" y="84.569063" style="fill: #2ca02c; stroke: #2ca02c"/>
     </g>
    </g>
    <g id="text_20">
     <!-- stream_size=1000000 -->
     <g transform="translate(578.971313 88.069063) scale(0.1 -0.1)">
      <use xlink:href="#DejaVuSans-73"/>
      <use xlink:href="#DejaVuSans-74" transform="translate(52.099609 0)"/>
      <use xlink:href="#DejaVuSans-72" transform="translate(91.308594 0)"/>
      <use xlink:href="#DejaVuSans-65" transform="translate(130.171875 0)"/>
      <use xlink:href="#DejaVuSans-61" transform="translate(191.695312 0)"/>
      <use xlink:href="#DejaVuSans-6d" transform="translate(252.974609 0)"/>
      <use xlink:href="#DejaVuSans-5f" transform="translate(350.386719 0)"/>
      <use xlink:href="#DejaVuSans-73" transform="translate(400.386719 0)"/>
      <use xlink:href="#DejaVuSans-69" transform="translate(452.486328 0)"/>
      <use xlink:href="#DejaVuSans-7a" transform="translate(480.269531 0)"/>
      <use xlink:href="#DejaVuSans-65" transform="translate(532.759766 0)"/>
      <use xlink:href="#DejaVuSans-3d" transform="translate(594.283203 0)"/>
      <use xlink:href="#DejaVuSans-31" transform="translate(678.072266 0)"/>
      <use xlink:href="#DejaVuSans-30" transform="translate(741.695312 0)"/>
      <use xlink:href="#DejaVuSans-30" transform="translate(805.318359 0)"/>
      <use xlink:href="#DejaVuSans-30" transform="translate(868.941406 0)"/>
      <use xlink:href="#DejaVuSans-30" transform="translate(932.564453 0)"/>
      <use xlink:href="#DejaVuSans-30" transform="translate(996.1875 0)"/>
      <use xlink:href="#DejaVuSans-30" transform="translate(1059.810547 0)"/>
     </g>
    </g>
    <g id="line2d_37">
     <path d="M 550.971313 99.525313 
L 560.971313 99.525313 
L 570.971313 99.525313 
" style="fill: none; stroke: #d62728; stroke-width: 1.5; stroke-linecap: square"/>
     <g>
      <use xlink:href="#mfa8d2543f4" x="560.971313" y="99.525313" style="fill: #d62728; stroke: #d62728"/>
     </g>
    </g>
    <g id="text_21">
     <!-- stream_size=5000000 -->
     <g transform="translate(578.971313 103.025313) scale(0.1 -0.1)">
      <use xlink:href="#DejaVuSans-73"/>
      <use xlink:href="#DejaVuSans-74" transform="translate(52.099609 0)"/>
      <use xlink:href="#DejaVuSans-72" transform="translate(91.308594 0)"/>
      <use xlink:href="#DejaVuSans-65" transform="translate(130.171875 0)"/>
      <use xlink:href="#DejaVuSans-61" transform="translate(191.695312 0)"/>
      <use xlink:href="#DejaVuSans-6d" transform="translate(252.974609 0)"/>
      <use xlink:href="#DejaVuSans-5f" transform="translate(350.386719 0)"/>
      <use xlink:href="#DejaVuSans-73" transform="translate(400.386719 0)"/>
      <use xlink:href="#DejaVuSans-69" transform="translate(452.486328 0)"/>
      <use xlink:href="#DejaVuSans-7a" transform="translate(480.269531 0)"/>
      <use xlink:href="#DejaVuSans-65" transform="translate(532.759766 0)"/>
      <use xlink:href="#DejaVuSans-3d" transform="translate(594.283203 0)"/>
      <use xlink:href="#DejaVuSans-35" transform="translate(678.072266 0)"/>
      <use xlink:href="#DejaVuSans-30" transform="translate(741.695312 0)"/>
      <use xlink:href="#DejaVuSans-30" transform="translate(805.318359 0)"/>
      <use xlink:href="#DejaVuSans-30" transform="translate(868.941406 0)"/>
      <use xlink:href="#DejaVuSans-30" transform="translate(932.564453 0)"/>
      <use xlink:href="#DejaVuSans-30" transform="translate(996.1875 0)"/>
      <use xlink:href="#DejaVuSans-30" transform="translate(1059.810547 0)"/>
     </g>
    </g>
    <g id="line2d_38">
     <path d="M 550.971313 114.481562 
L 560.971313 114.481562 
L 570.971313 114.481562 
" style="fill: none; stroke: #9467bd; stroke-width: 1.5; stroke-linecap: square"/>
     <g>
      <use xlink:href="#m1ab3926f29" x="560.971313" y="114.481562" style="fill: #9467bd; stroke: #9467bd"/>
     </g>
    </g>
    <g id="text_22">
     <!-- stream_size=10000000 -->
     <g transform="translate(578.971313 117.981562) scale(0.1 -0.1)">
      <use xlink:href="#DejaVuSans-73"/>
      <use xlink:href="#DejaVuSans-74" transform="translate(52.099609 0)"/>
      <use xlink:href="#DejaVuSans-72" transform="translate(91.308594 0)"/>
      <use xlink:href="#DejaVuSans-65" transform="translate(130.171875 0)"/>
      <use xlink:href="#DejaVuSans-61" transform="translate(191.695312 0)"/>
      <use xlink:href="#DejaVuSans-6d" transform="translate(252.974609 0)"/>
      <use xlink:href="#DejaVuSans-5f" transform="translate(350.386719 0)"/>
      <use xlink:href="#DejaVuSans-73" transform="translate(400.386719 0)"/>
      <use xlink:href="#DejaVuSans-69" transform="translate(452.486328 0)"/>
      <use xlink:href="#DejaVuSans-7a" transform="translate(480.269531 0)"/>
      <use xlink:href="#DejaVuSans-65" transform="translate(532.759766 0)"/>
      <use xlink:href="#DejaVuSans-3d" transform="translate(594.283203 0)"/>
      <use xlink:href="#DejaVuSans-31" transform="translate(678.072266 0)"/>
      <use xlink:href="#DejaVuSans-30" transform="translate(741.695312 0)"/>
      <use xlink:href="#DejaVuSans-30" transform="translate(805.318359 0)"/>
      <use xlink:href="#DejaVuSans-30" transform="translate(868.941406 0)"/>
      <use xlink:href="#DejaVuSans-30" transform="translate(932.564453 0)"/>
      <use xlink:href="#DejaVuSans-30" transform="translate(996.1875 0)"/>
      <use xlink:href="#DejaVuSans-30" transform="translate(1059.810547 0)"/>
      <use xlink:href="#DejaVuSans-30" transform="translate(1123.433594 0)"/>
     </g>
    </g>
    <g id="line2d_39">
     <path d="M 550.971313 129.437813 
L 560.971313 129.437813 
L 570.971313 129.437813 
" style="fill: none; stroke: #8c564b; stroke-width: 1.5; stroke-linecap: square"/>
     <g>
      <use xlink:href="#m0925c643f3" x="560.971313" y="129.437813" style="fill: #8c564b; stroke: #8c564b"/>
     </g>
    </g>
    <g id="text_23">
     <!-- stream_size=25000000 -->
     <g transform="translate(578.971313 132.937813) scale(0.1 -0.1)">
      <use xlink:href="#DejaVuSans-73"/>
      <use xlink:href="#DejaVuSans-74" transform="translate(52.099609 0)"/>
      <use xlink:href="#DejaVuSans-72" transform="translate(91.308594 0)"/>
      <use xlink:href="#DejaVuSans-65" transform="translate(130.171875 0)"/>
      <use xlink:href="#DejaVuSans-61" transform="translate(191.695312 0)"/>
      <use xlink:href="#DejaVuSans-6d" transform="translate(252.974609 0)"/>
      <use xlink:href="#DejaVuSans-5f" transform="translate(350.386719 0)"/>
      <use xlink:href="#DejaVuSans-73" transform="translate(400.386719 0)"/>
      <use xlink:href="#DejaVuSans-69" transform="translate(452.486328 0)"/>
      <use xlink:href="#DejaVuSans-7a" transform="translate(480.269531 0)"/>
      <use xlink:href="#DejaVuSans-65" transform="translate(532.759766 0)"/>
      <use xlink:href="#DejaVuSans-3d" transform="translate(594.283203 0)"/>
      <use xlink:href="#DejaVuSans-32" transform="translate(678.072266 0)"/>
      <use xlink:href="#DejaVuSans-35" transform="translate(741.695312 0)"/>
      <use xlink:href="#DejaVuSans-30" transform="translate(805.318359 0)"/>
      <use xlink:href="#DejaVuSans-30" transform="translate(868.941406 0)"/>
      <use xlink:href="#DejaVuSans-30" transform="translate(932.564453 0)"/>
      <use xlink:href="#DejaVuSans-30" transform="translate(996.1875 0)"/>
      <use xlink:href="#DejaVuSans-30" transform="translate(1059.810547 0)"/>
      <use xlink:href="#DejaVuSans-30" transform="translate(1123.433594 0)"/>
     </g>
    </g>
    <g id="line2d_40">
     <path d="M 550.971313 144.394063 
L 560.971313 144.394063 
L 570.971313 144.394063 
" style="fill: none; stroke: #e377c2; stroke-width: 1.5; stroke-linecap: square"/>
     <g>
      <use xlink:href="#m74dfe670ea" x="560.971313" y="144.394063" style="fill: #e377c2; stroke: #e377c2"/>
     </g>
    </g>
    <g id="text_24">
     <!-- stream_size=50000000 -->
     <g transform="translate(578.971313 147.894063) scale(0.1 -0.1)">
      <use xlink:href="#DejaVuSans-73"/>
      <use xlink:href="#DejaVuSans-74" transform="translate(52.099609 0)"/>
      <use xlink:href="#DejaVuSans-72" transform="translate(91.308594 0)"/>
      <use xlink:href="#DejaVuSans-65" transform="translate(130.171875 0)"/>
      <use xlink:href="#DejaVuSans-61" transform="translate(191.695312 0)"/>
      <use xlink:href="#DejaVuSans-6d" transform="translate(252.974609 0)"/>
      <use xlink:href="#DejaVuSans-5f" transform="translate(350.386719 0)"/>
      <use xlink:href="#DejaVuSans-73" transform="translate(400.386719 0)"/>
      <use xlink:href="#DejaVuSans-69" transform="translate(452.486328 0)"/>
      <use xlink:href="#DejaVuSans-7a" transform="translate(480.269531 0)"/>
      <use xlink:href="#DejaVuSans-65" transform="translate(532.759766 0)"/>
      <use xlink:href="#DejaVuSans-3d" transform="translate(594.283203 0)"/>
      <use xlink:href="#DejaVuSans-35" transform="translate(678.072266 0)"/>
      <use xlink:href="#DejaVuSans-30" transform="translate(741.695312 0)"/>
      <use xlink:href="#DejaVuSans-30" transform="translate(805.318359 0)"/>
      <use xlink:href="#DejaVuSans-30" transform="translate(868.941406 0)"/>
      <use xlink:href="#DejaVuSans-30" transform="translate(932.564453 0)"/>
      <use xlink:href="#DejaVuSans-30" transform="translate(996.1875 0)"/>
      <use xlink:href="#DejaVuSans-30" transform="translate(1059.810547 0)"/>
      <use xlink:href="#DejaVuSans-30" transform="translate(1123.433594 0)"/>
     </g>
    </g>
   </g>
  </g>
 </g>
 <defs>
  <clipPath id="p373f17244c">
   <rect x="69.77" y="26.88" width="636.907563" height="363.16"/>
  </clipPath>
 </defs>
</svg>
